<?xml version="1.0" encoding="utf-8"?>
<!-- Generator: Adobe Illustrator 20.1.0, SVG Export Plug-In . SVG Version: 6.00 Build 0)  -->
<svg version="1.1" id="Layer_1" xmlns="http://www.w3.org/2000/svg" xmlns:xlink="http://www.w3.org/1999/xlink" x="0px" y="0px"
	 viewBox="0 0 30 21" style="enable-background:new 0 0 30 21;" xml:space="preserve">
<style type="text/css">
	.st0{fill:#AB9764;}
</style>
<title>Group 11</title>
<desc>Created with Sketch.</desc>
<path class="st0" d="M29.1,0.6C29.1,0.6,29.1,0.6,29.1,0.6C29.1,0.6,29,0.5,29,0.5c-0.3-0.2-0.7-0.4-1.2-0.4H2.1C1,0.1,0,1.1,0,2.2
	v16.6c0,1.1,0.9,2,2.1,2h25.4h0h0.3c1.1,0,2.1-0.9,2.1-2V2.2C29.9,1.6,29.6,1,29.1,0.6z M27.8,1c0.1,0,0.1,0,0.2,0l-10.1,9.7
	c0,0-0.1,0.1-0.1,0.1L15,13.5L2,1.1c0,0,0.1,0,0.1,0H27.8z M14.6,14.4c0.1,0.1,0.2,0.1,0.3,0.1c0.1,0,0.3,0,0.4-0.1l2.8-2.7l8.3,8.2
	H3.4l8.1-8.5L14.6,14.4z M0.9,18.8V2.2c0-0.3,0.1-0.5,0.2-0.7l9.8,9.3l-8.7,9.1H2.1c-0.3,0-0.6-0.1-0.8-0.3
	C1.1,19.4,0.9,19.1,0.9,18.8z M29,18.8c0,0.6-0.5,1.2-1.2,1.2h-0.2l-8.9-8.8l10-9.6C28.9,1.7,29,1.9,29,2.2V18.8z"/>
</svg>
