<?xml version="1.0" encoding="UTF-8" standalone="no"?>
<svg width="23px" height="34px" viewBox="0 0 23 34" version="1.1" xmlns="http://www.w3.org/2000/svg" xmlns:xlink="http://www.w3.org/1999/xlink">
    <!-- Generator: Sketch 41.2 (35397) - http://www.bohemiancoding.com/sketch -->
    <title>Group 8</title>
    <desc>Created with Sketch.</desc>
    <defs></defs>
    <g id="Vistas" stroke="none" stroke-width="1" fill="none" fill-rule="evenodd">
        <g id="02-TIENDA-DETALLE" transform="translate(-925.000000, -754.000000)" fill="#AB9764">
            <g id="Group-8" transform="translate(925.000000, 754.000000)">
                <path d="M11.4525397,33.915 L11.4525397,33.915 C11.2643444,33.915145 11.0892597,33.8174559 10.9888889,33.6563043 C10.3950265,32.7052899 9.81698413,31.7801449 9.2547619,30.8808696 C3.97571429,22.4621739 0.164285714,16.3828261 0.164285714,11.0684783 C0.164285714,5.15543478 5.33380952,0.181086957 11.4525397,0.181086957 C17.5712698,0.181086957 22.7407937,5.17391304 22.7407937,11.0869565 C22.7407937,16.4013043 18.9257143,22.4843478 13.6430159,30.9067391 C13.0832275,31.801087 12.5064021,32.7225362 11.9125397,33.671087 C11.8094561,33.8254944 11.6366271,33.9171363 11.4525397,33.915 Z M11.4525397,1.29347826 C5.9252381,1.29347826 1.25952381,5.7726087 1.25952381,11.0721739 C1.25952381,16.0613043 5.0015873,22.0297826 10.1820635,30.2895652 L11.4561905,32.3221739 L12.7230159,30.2969565 C17.9071429,22.0334783 21.6492063,16.0613043 21.6492063,11.0795652 C21.6455556,5.7726087 16.9761905,1.29347826 11.4525397,1.29347826 Z" id="Shape"></path>
                <path d="M11.4525397,16.2608696 C8.92614378,16.2608696 6.87809524,14.187656 6.87809524,11.6302174 C6.87809524,9.07277881 8.92614378,6.99956522 11.4525397,6.99956522 C13.9789356,6.99956522 16.0269841,9.07277881 16.0269841,11.6302174 C16.0229639,14.1859684 13.9772685,16.2567999 11.4525397,16.2608696 L11.4525397,16.2608696 Z M11.4525397,8.10456522 C9.53102707,8.10456522 7.97333333,9.68139886 7.97333333,11.6265217 C7.97333333,13.5716446 9.53102707,15.1484783 11.4525397,15.1484783 C13.3740523,15.1484783 14.931746,13.5716446 14.931746,11.6265217 C14.9346553,10.6901812 14.5694984,9.79112786 13.9168102,9.12764673 C13.264122,8.46416559 12.3775188,8.09075947 11.4525397,8.08978261 L11.4525397,8.10456522 Z" id="Shape"></path>
            </g>
        </g>
    </g>
</svg>