<?xml version="1.0" encoding="UTF-8" standalone="no"?>
<svg width="26px" height="27px" viewBox="0 0 26 27" version="1.1" xmlns="http://www.w3.org/2000/svg" xmlns:xlink="http://www.w3.org/1999/xlink">
    <!-- Generator: Sketch 41.2 (35397) - http://www.bohemiancoding.com/sketch -->
    <title>noun_827150_cc</title>
    <desc>Created with Sketch.</desc>
    <defs></defs>
    <g id="Vistas" stroke="none" stroke-width="1" fill="none" fill-rule="evenodd">
        <g id="02-RESTAURANT-DETALLE" transform="translate(-943.000000, -842.000000)" fill="#A59D7A">
            <g id="noun_827150_cc" transform="translate(943.000000, 842.000000)">
                <g id="Group">
                    <g transform="translate(0.000000, 0.329704)" id="Shape">
                        <path d="M13,0.187224369 C5.832632,0.187224369 0,5.98533858 0,13.1103065 C0,20.2351606 5.832632,26.0333834 13,26.0333834 C20.167368,26.0333834 26,20.2351606 26,13.1103065 C26,5.98533858 20.167368,0.187224369 13,0.187224369 Z M13,2.25491668 C19.043232,2.25491668 23.92,7.10282289 23.92,13.1103065 C23.92,19.1176763 19.043232,23.9656911 13,23.9656911 C6.956768,23.9656911 2.08,19.1176763 2.08,13.1103065 C2.08,7.10282289 6.956768,2.25491668 13,2.25491668 Z M13,4.83952689 C12.425608,4.83952689 11.96,5.30237982 11.96,5.87337305 L11.96,13.1103065 C11.96,13.6812997 12.425608,14.1441526 13,14.1441526 L19.24,14.1441526 C19.814392,14.1441526 20.28,13.6812997 20.28,13.1103065 C20.28,12.5393132 19.814392,12.0764603 19.24,12.0764603 L14.04,12.0764603 L14.04,5.87337305 C14.04,5.30237982 13.574392,4.83952689 13,4.83952689 Z"></path>
                    </g>
                </g>
            </g>
        </g>
    </g>
</svg>