<?xml version="1.0" encoding="UTF-8" standalone="no"?>
<svg width="29px" height="32px" viewBox="0 0 29 32" version="1.1" xmlns="http://www.w3.org/2000/svg" xmlns:xlink="http://www.w3.org/1999/xlink">
    <!-- Generator: Sketch 41.2 (35397) - http://www.bohemiancoding.com/sketch -->
    <title>Group 9</title>
    <desc>Created with Sketch.</desc>
    <defs></defs>
    <g id="Vistas" stroke="none" stroke-width="1" fill="none" fill-rule="evenodd">
        <g id="02-TIENDA-DETALLE" transform="translate(-926.000000, -629.000000)" fill="#AB9764">
            <g id="Group-9" transform="translate(926.000000, 629.000000)">
                <path d="M15.9185542,31.9786667 C11.1318072,31.9786667 5.9746988,26.4035556 2.87554217,19.9502222 C1.10060241,16.2488889 0.0803614458,12.4835556 0.034939759,9.37244444 C-0.0279518072,5.72444444 1.19843373,3.12888889 3.5813253,1.86311111 L3.60228916,1.86311111 L7.19060241,0.163555556 C7.44926128,0.0352747133 7.76118164,0.143196767 7.88939759,0.405333333 L12.9871084,10.5351111 C13.1136699,10.7973844 13.0092892,11.1144602 12.753012,11.2462222 L9.52457831,12.864 C9.43024096,13.6213333 10.0871084,15.6764444 11.313494,17.7742222 C12.2079518,19.2995556 12.8892771,19.9537778 13.1792771,20.1066667 C13.6195181,19.8791111 14.6921687,19.3351111 16.379759,18.4924444 C16.6365652,18.3631321 16.9478193,18.4676562 17.0785542,18.7271111 L22.2636145,28.9102222 C22.3901759,29.1724955 22.2857952,29.4895713 22.0295181,29.6213333 L18.4237349,31.3991111 C17.6402207,31.7759592 16.7851622,31.9737708 15.9185542,31.9786667 Z M4.05650602,2.82311111 C-0.450722892,5.22666667 0.772168675,13.1342222 3.81542169,19.4915556 C8.34012048,28.9137778 14.360241,32.1457778 17.9695181,30.4675556 L21.0756627,28.9208889 L16.3727711,19.6764444 C15.1813253,20.2737778 13.6404819,21.0488889 13.5007229,21.1306667 C13.4072096,21.1845809 13.3006132,21.210467 13.193253,21.2053333 C12.2708434,21.1377778 11.2121687,19.6728889 10.4854217,18.4568889 C9.57349398,16.9315556 8.0046988,13.6782222 8.58819277,12.2808889 C8.63743601,12.1629931 8.72673406,12.0670727 8.83975904,12.0106667 L11.7991566,10.528 L7.17313253,1.33688889 L4.05650602,2.82311111 Z" id="Shape"></path>
                <path d="M19.8248193,15.4453333 C19.7739873,15.4456743 19.723377,15.438488 19.6745783,15.424 L15.9919277,14.3075556 C15.7150885,14.2220507 15.5586968,13.9244438 15.6425301,13.6426667 L16.7396386,9.89866667 C16.8236963,9.6187617 17.1137173,9.4600883 17.3895181,9.54311111 C18.4994293,9.87892672 19.4326867,10.6498616 19.9838094,11.6861744 C20.534932,12.7224872 20.6587321,13.9392081 20.3279518,15.0684444 C20.2614555,15.2945911 20.0567842,15.4493537 19.8248193,15.4488889 L19.8248193,15.4453333 Z M16.7955422,13.4364444 L19.433494,14.2364444 C19.6189353,12.7910881 18.8723492,11.3877114 17.5816867,10.7555556 L16.7955422,13.4364444 Z" id="Shape"></path>
                <path d="M23.786988,16.6435556 C23.7361527,16.6439474 23.6855351,16.63676 23.636747,16.6222222 L21.3726506,15.936 C21.0975934,15.8504608 20.9416681,15.5553283 21.023253,15.2746667 C21.4092518,13.9577704 21.2648776,12.5387314 20.6219441,11.330242 C19.9790105,10.1217527 18.890281,9.2229897 17.5956627,8.832 C17.3188235,8.7464951 17.1624318,8.44888827 17.2462651,8.16711111 L17.9240964,5.85955556 C18.0081204,5.57783723 18.3005729,5.41868919 18.5774699,5.504 C23.0761518,6.86820446 25.6367233,11.6848503 24.2971084,16.2631111 C24.2298921,16.4918062 24.0215315,16.6472001 23.786988,16.6435556 L23.786988,16.6435556 Z M22.1518072,15.0577778 L23.4166265,15.4417778 C24.2234257,11.7544979 22.2405921,8.02516739 18.7661446,6.69511111 L18.3887952,7.98222222 C21.1672192,9.09553135 22.7554283,12.0818258 22.1518072,15.0577778 Z" id="Shape"></path>
                <path d="M27.8050602,17.8666667 C27.7542283,17.8670077 27.7036179,17.8598213 27.6548193,17.8453333 L25.3348193,17.1342222 C25.0579801,17.0487173 24.9015884,16.7511105 24.9854217,16.4693333 C25.6850594,14.0835563 25.4242389,11.512628 24.2603886,9.32262423 C23.0965384,7.13262049 21.1250888,5.50311174 18.7801205,4.79288889 C18.5032813,4.70738399 18.3468896,4.40977716 18.4307229,4.128 L19.1295181,1.76355556 C19.2135421,1.48183723 19.5059946,1.32268919 19.7828916,1.408 C26.5013339,3.44736113 30.3251205,10.64087 28.3256627,17.4791111 C28.2591664,17.7052578 28.054495,17.8600204 27.8225301,17.8595556 L27.8050602,17.8666667 Z M26.1244578,16.2666667 L27.4416867,16.6648889 C28.8986306,10.7141284 25.6562661,4.61466105 19.9645783,2.59911111 L19.5662651,3.94311111 C24.5336284,5.73209806 27.364231,11.0567809 26.1174699,16.2666667 L26.1244578,16.2666667 Z" id="Shape"></path>
            </g>
        </g>
    </g>
</svg>