<?xml version="1.0" encoding="UTF-8" standalone="no"?>
<svg width="26px" height="26px" viewBox="0 0 26 26" version="1.1" xmlns="http://www.w3.org/2000/svg" xmlns:xlink="http://www.w3.org/1999/xlink">
    <!-- Generator: Sketch 41.2 (35397) - http://www.bohemiancoding.com/sketch -->
    <title>noun_627057_cc</title>
    <desc>Created with Sketch.</desc>
    <defs></defs>
    <g id="Vistas" stroke="none" stroke-width="1" fill="none" fill-rule="evenodd">
        <g id="02-TIENDA-DETALLE" transform="translate(-926.000000, -821.000000)" fill="#A59D7A">
            <g id="noun_627057_cc" transform="translate(926.000000, 821.000000)">
                <g id="Group">
                    <path d="M22.4162162,21.572973 C24.5594595,19.2189189 25.7189189,16.2324324 25.7189189,13.0351351 L25.7189189,13.0351351 L25.7189189,13.0351351 L25.7189189,13.0351351 L25.7189189,13.0351351 C25.7189189,9.76756757 24.4891892,6.81621622 22.4864865,4.56756757 C22.4513514,4.4972973 22.3810811,4.42702703 22.3108108,4.39189189 C19.9918919,1.8972973 16.6891892,0.316216216 13.0351351,0.316216216 L13.0351351,0.316216216 L13,0.316216216 L12.9648649,0.316216216 L12.9648649,0.316216216 C9.31081081,0.316216216 6.00810811,1.8972973 3.68918919,4.39189189 C3.61891892,4.42702703 3.58378378,4.4972973 3.54864865,4.56756757 C1.54594595,6.81621622 0.281081081,9.8027027 0.281081081,13.0702703 C0.281081081,16.3378378 1.51081081,19.3243243 3.54864865,21.572973 C3.58378378,21.6081081 3.61891892,21.6783784 3.68918919,21.7135135 C5.97297297,24.1378378 9.31081081,25.7189189 13,25.7189189 L13,25.7189189 L13,25.7189189 L13,25.7189189 L13,25.7189189 L13,25.7189189 C16.4081081,25.7189189 19.6054054,24.3837838 21.9945946,21.9945946 C22.1351351,21.8540541 22.2756757,21.7135135 22.4162162,21.572973 L22.4162162,21.572973 Z M1.68648649,13.7027027 L8.04594595,13.7027027 C8.11621622,15.3189189 8.3972973,16.9351351 8.88918919,18.4810811 C7.30810811,18.8324324 5.76216216,19.3945946 4.28648649,20.2027027 C2.77567568,18.4108108 1.86216216,16.1621622 1.68648649,13.7027027 Z M4.28648649,5.7972973 C5.76216216,6.57027027 7.30810811,7.13243243 8.88918919,7.51891892 C8.3972973,9.1 8.11621622,10.7162162 8.04594595,12.3324324 L1.68648649,12.3324324 C1.86216216,9.83783784 2.77567568,7.58918919 4.28648649,5.7972973 Z M24.3135135,12.2972973 L17.9540541,12.2972973 C17.8837838,10.6810811 17.6027027,9.06486486 17.1108108,7.48378378 C18.6918919,7.13243243 20.2378378,6.53513514 21.7135135,5.76216216 C23.2243243,7.58918919 24.1378378,9.83783784 24.3135135,12.2972973 Z M10.2594595,18.2351351 C9.76756757,16.7594595 9.52162162,15.2486486 9.45135135,13.7027027 L16.5135135,13.7027027 C16.4432432,15.2135135 16.1621622,16.7594595 15.7054054,18.2351351 C13.9135135,17.9540541 12.0864865,17.9540541 10.2594595,18.2351351 Z M15.2135135,19.5702703 C14.8972973,20.3432432 14.5108108,21.1162162 14.0540541,21.8189189 L13,23.6459459 L11.9108108,21.8189189 C11.4540541,21.0810811 11.1027027,20.3432432 10.7513514,19.5702703 C12.2621622,19.3945946 13.7378378,19.3945946 15.2135135,19.5702703 Z M9.45135135,12.2972973 C9.52162162,10.7513514 9.8027027,9.24054054 10.2594595,7.76486486 C11.172973,7.90540541 12.0864865,7.97567568 13,7.97567568 C13.9135135,7.97567568 14.827027,7.90540541 15.7054054,7.76486486 C16.1972973,9.24054054 16.4432432,10.7513514 16.5135135,12.2972973 L9.45135135,12.2972973 Z M10.7864865,6.42972973 C11.1027027,5.65675676 11.4891892,4.88378378 11.9459459,4.18108108 L13.0351351,2.35405405 L14.1243243,4.18108108 C14.5810811,4.91891892 14.9324324,5.65675676 15.2837838,6.42972973 C13.7378378,6.60540541 12.2621622,6.60540541 10.7864865,6.42972973 Z M16.6540541,6.18378378 C16.2675676,5.23513514 15.8108108,4.32162162 15.2837838,3.44324324 L14.2648649,1.75675676 C16.7594595,2.03783784 18.972973,3.12702703 20.7297297,4.74324324 C19.4297297,5.37567568 18.0594595,5.86756757 16.6540541,6.18378378 Z M10.7162162,3.44324324 C10.1891892,4.32162162 9.73243243,5.23513514 9.34594595,6.18378378 C7.94054054,5.86756757 6.57027027,5.41081081 5.27027027,4.74324324 C6.99189189,3.12702703 9.24054054,2.03783784 11.7351351,1.75675676 L10.7162162,3.44324324 Z M9.34594595,19.8162162 C9.73243243,20.7648649 10.1891892,21.6783784 10.7162162,22.5567568 L11.7351351,24.2432432 C9.24054054,23.9621622 7.02702703,22.872973 5.30540541,21.2567568 C6.57027027,20.6243243 7.94054054,20.1324324 9.34594595,19.8162162 Z M15.2837838,22.5567568 C15.8108108,21.6783784 16.2675676,20.7648649 16.6540541,19.8162162 C18.0594595,20.1324324 19.4297297,20.5891892 20.7297297,21.2567568 C18.9378378,22.9432432 16.6891892,23.9621622 14.2648649,24.2432432 L15.2837838,22.5567568 Z M17.1108108,18.4810811 C17.6027027,16.9351351 17.8837838,15.3189189 17.9540541,13.7027027 L24.3135135,13.7027027 C24.172973,16.0918919 23.2594595,18.3756757 21.7486486,20.2027027 C20.272973,19.4297297 18.727027,18.8675676 17.1108108,18.4810811 Z" id="Shape"></path>
                </g>
            </g>
        </g>
    </g>
</svg>